<svg width="512" height="512" viewBox="0 0 512 512" fill="none" xmlns="http://www.w3.org/2000/svg">
<rect width="512" height="512" fill="black"/>
<path d="M236.787 201.5C230.12 201.5 222.787 200.5 214.787 198.5C207.12 196.5 199.954 193.333 193.287 189C186.62 184.333 180.954 178.167 176.287 170.5C171.954 162.833 169.787 153.167 169.787 141.5V132.5C169.787 122.167 171.287 113.333 174.287 106C177.287 98.6666 181.287 92.6666 186.287 88C191.62 83.3333 197.454 80 203.787 78C210.454 76 217.287 75 224.287 75C240.287 75 251.954 79.6667 259.287 89C266.62 98.3333 270.287 109.333 270.287 122V126.5C270.287 127.833 270.12 129.333 269.787 131C265.787 126 260.787 123.5 254.787 123.5C250.12 123.833 246.62 125.167 244.287 127.5C241.954 129.5 240.12 132 238.787 135C237.787 137.667 237.12 140.667 236.787 144C236.787 147.333 236.787 150.333 236.787 153V201.5ZM279.787 75H286.787C304.787 75 319.12 79.8333 329.787 89.5C340.787 98.8333 346.287 114.5 346.287 136.5V155C346.287 173.333 340.954 186.667 330.287 195C319.954 203 306.287 207 289.287 207C287.62 207 285.954 207 284.287 207C282.954 206.667 281.454 206.5 279.787 206.5V75ZM277.287 323H270.787C252.787 323 238.12 318.333 226.787 309C215.787 299.667 210.287 285.5 210.287 266.5C210.287 256.167 212.287 247.5 216.287 240.5C220.287 233.5 225.287 228 231.287 224C237.287 220 243.787 217.167 250.787 215.5C258.12 213.833 264.954 213 271.287 213H277.287V323ZM221.287 404.5C221.287 394.167 224.787 385.5 231.787 378.5C238.787 371.5 247.12 368 256.787 368C267.12 368 275.787 371.5 282.787 378.5C289.787 385.5 293.287 394.167 293.287 404.5C293.287 414.167 289.787 422.5 282.787 429.5C275.787 436.5 267.12 440 256.787 440C247.12 440 238.787 436.5 231.787 429.5C224.787 422.5 221.287 414.167 221.287 404.5Z" fill="white"/>
</svg>
